#!OML:ASF G:\JayActor3\Patient Classification 1\Patient 1\Session 5\male.ASF
:FULLY-SPECIFIED
:DEGREES
1398
root 45.3264 16.5626 -27.4548 -42.0898 84.7327 -44.9785
lowerback 5.32961 -0.331736 3.41055
upperback 1.15667 -0.226665 0.24609
thorax -1.80982 -0.119165 -1.64552
lowerneck 3.86695 0.467847 4.33663
upperneck -0.329251 0.83169 -0.360127
head -0.725997 0.41673 -0.84804
rclavicle 1.27222e-014 -5.76476e-015
rhumerus -34.9033 -15.603 -82.0469
rradius 17.2392
rwrist 18.944
rhand -21.426 -6.2287
rfingers 7.12502
rthumb 4.96299 -36.1506
lclavicle 1.27222e-014 -5.76476e-015
lhumerus -28.785 12.1964 83.5603
lradius 6.88313
lwrist 8.6008
lhand -26.7908 16.0494
lfingers 7.12502
lthumb -0.218059 46.029
rfemur -12.8953 6.17236 26.0438
rtibia 28.458
rfoot -18.3761 -15.1997
rtoes 10.2009
lfemur 5.09209 3.17474 -14.1745
ltibia 1.74931e-014
lfoot -4.35585 -15.4505
ltoes -0.0245411
1399
root 45.3318 16.5616 -27.4535 -41.9102 84.7249 -44.8033
lowerback 5.33701 -0.333559 3.41346
upperback 1.16143 -0.228687 0.243976
thorax -1.80917 -0.120085 -1.64919
lowerneck 3.87094 0.467163 4.30948
upperneck -0.350898 0.830503 -0.324004
head -0.733478 0.415468 -0.832264
rclavicle -1.19271e-014 -1.98785e-016
rhumerus -34.9041 -15.5865 -82.0584
rradius 17.242
rwrist 18.9414
rhand -21.4159 -6.22638
rfingers 7.12502
rthumb 4.97275 -36.148
lclavicle -1.19271e-014 -1.98785e-016
lhumerus -28.7686 12.1631 83.5765
lradius 6.89234
lwrist 8.59867
lhand -26.7623 16.0392
lfingers 7.12502
lthumb -0.190509 46.0188
rfemur -12.8882 6.14416 26.04
rtibia 28.4729
rfoot -18.3982 -15.1613
rtoes 10.1888
lfemur 5.11592 3.19257 -14.1777
ltibia -2.54444e-014
lfoot -4.40439 -15.4404
ltoes -0.06469
1400
root 45.3367 16.5605 -27.4522 -41.7066 84.7148 -44.6032
lowerback 5.34681 -0.33499 3.41519
upperback 1.16489 -0.230127 0.242372
thorax -1.81117 -0.120771 -1.65169
lowerneck 3.87476 0.465976 4.28115
upperneck -0.371519 0.828583 -0.287749
head -0.74063 0.413856 -0.816236
rclavicle 2.36057e-014 -2.78299e-015
rhumerus -34.9061 -15.5671 -82.0698
rradius 17.247
rwrist 18.9368
rhand -21.4052 -6.2248
rfingers 7.12502
rthumb 4.98306 -36.1462
lclavicle 2.36057e-014 -2.78299e-015
lhumerus -28.7557 12.1315 83.591
lradius 6.90537
lwrist 8.593
lhand -26.7316 16.0314
lfingers 7.12502
lthumb -0.160855 46.0111
rfemur -12.8825 6.11629 26.0355
rtibia 28.4888
rfoot -18.4177 -15.1175
rtoes 10.1748
lfemur 5.13979 3.21364 -14.1808
ltibia 2.22639e-014
lfoot -4.4529 -15.4305
ltoes -0.107276
1401
root 45.3413 16.5594 -27.451 -41.4767 84.7021 -44.3758
lowerback 5.35412 -0.336953 3.41662
upperback 1.17033 -0.232438 0.239922
thorax -1.8098 -0.121807 -1.65485
lowerneck 3.87802 0.465014 4.25271
upperneck -0.394423 0.826976 -0.250354
head -0.748391 0.412349 -0.79986
rclavicle -3.77691e-015 1.61016e-014
rhumerus -34.904 -15.5487 -82.083
rradius 17.2516
rwrist 18.9354
rhand -21.3949 -6.22341
rfingers 7.12502
rthumb 4.99302 -36.1446
lclavicle -3.77691e-015 1.61016e-014
lhumerus -28.7411 12.1034 83.6012
lradius 6.9196
lwrist 8.58234
lhand -26.7003 16.0221
lfingers 7.12502
lthumb -0.130595 46.0018
rfemur -12.878 6.08909 26.03
rtibia 28.5055
rfoot -18.4339 -15.0698
rtoes 10.1584
lfemur 5.16414 3.2381 -14.1842
ltibia -4.6118e-014
lfoot -4.5015 -15.4203
ltoes -0.151523
1402
root 45.3455 16.5582 -27.4499 -41.22 84.6869 -44.1211
lowerback 5.36202 -0.338119 3.41764
upperback 1.17586 -0.233686 0.237516
thorax -1.8086 -0.122312 -1.6578
lowerneck 3.87918 0.463052 4.224
upperneck -0.417041 0.823915 -0.213434
head -0.755742 0.410122 -0.783553
rclavicle 1.09332e-014 -1.11319e-014
rhumerus -34.9007 -15.5279 -82.0967
rradius 17.2586
rwrist 18.9309
rhand -21.3829 -6.22655
rfingers 7.12502
rthumb 5.00465 -36.1474
lclavicle 1.09332e-014 -1.11319e-014
lhumerus -28.7256 12.076 83.6101
lradius 6.93363
lwrist 8.56664
lhand -26.6693 16.0125
lfingers 7.12502
lthumb -0.100654 45.9923
rfemur -12.8753 6.06287 26.0236
rtibia 28.5232
rfoot -18.4476 -15.0175
rtoes 10.1408
lfemur 5.18818 3.26613 -14.1877
ltibia 6.04305e-014
lfoot -4.54984 -15.4101
ltoes -0.197425
1403
root 45.3495 16.5571 -27.4489 -40.9416 84.6679 -43.8439
lowerback 5.37049 -0.339078 3.41858
upperback 1.18147 -0.234629 0.235419
thorax -1.80762 -0.122665 -1.66041
lowerneck 3.87841 0.460409 4.19508
upperneck -0.439206 0.819834 -0.176938
head -0.76265 0.407394 -0.76732
rclavicle 3.62782e-015 -3.37934e-015
rhumerus -34.896 -15.505 -82.1111
rradius 17.2669
rwrist 18.9248
rhand -21.3717 -6.22809
rfingers 7.12502
rthumb 5.01544 -36.1487
lclavicle 3.62782e-015 -3.37934e-015
lhumerus -28.7106 12.0512 83.6162
lradius 6.94753
lwrist 8.54522
lhand -26.6378 15.9979
lfingers 7.12502
lthumb -0.0702251 45.9777
rfemur -12.8738 6.03762 26.0173
rtibia 28.5414
rfoot -18.4582 -14.9607
rtoes 10.1208
lfemur 5.21259 3.29823 -14.1904
ltibia 2.22639e-014
lfoot -4.59847 -15.3995
ltoes -0.245911
1404
root 45.353 16.5559 -27.448 -40.6315 84.6454 -43.5342
lowerback 5.38024 -0.339477 3.41846
upperback 1.18707 -0.234825 0.233601
thorax -1.80732 -0.122649 -1.66219
lowerneck 3.87598 0.456657 4.16303
upperneck -0.462227 0.814111 -0.137723
head -0.769579 0.403807 -0.749684
rclavicle -8.79622e-015 -6.95746e-015
rhumerus -34.8899 -15.4802 -82.1252
rradius 17.2766
rwrist 18.917
rhand -21.3604 -6.23039
rfingers 7.12502
rthumb 5.02639 -36.1508
lclavicle -8.79622e-015 -6.95746e-015
lhumerus -28.6957 12.029 83.6205
lradius 6.96176
lwrist 8.51806
lhand -26.6061 15.9844
lfingers 7.12502
lthumb -0.0396127 45.9641
rfemur -12.8737 6.01363 26.0101
rtibia 28.5602
rfoot -18.465 -14.8995
rtoes 10.0984
lfemur 5.23742 3.33495 -14.1932
ltibia -7.15625e-014
lfoot -4.64723 -15.3885
ltoes -0.296442
1405
root 45.3563 16.5547 -27.4472 -40.2948 84.6192 -43.1968
lowerback 5.38855 -0.340469 3.41846
upperback 1.19443 -0.235899 0.230975
thorax -1.80445 -0.123003 -1.66481
lowerneck 3.87192 0.452824 4.13317
upperneck -0.486933 0.808319 -0.0991993
head -0.776756 0.400161 -0.732642
rclavicle -7.45443e-016 -3.18055e-015
rhumerus -34.8791 -15.453 -82.1427
rradius 17.2864
rwrist 18.9082
rhand -21.3487 -6.23366
rfingers 7.12502
rthumb 5.03762 -36.1538
lclavicle -7.45443e-016 -3.18055e-015
lhumerus -28.6797 12.0111 83.6198
lradius 6.97586
lwrist 8.48292
lhand -26.5769 15.9654
lfingers 7.12502
lthumb -0.0114367 45.9451
rfemur -12.874 5.98983 26.0022
rtibia 28.5795
rfoot -18.4686 -14.8325
rtoes 10.0754
lfemur 5.26342 3.37598 -14.1961
ltibia -6.83819e-014
lfoot -4.69764 -15.3769
ltoes -0.353579
1406
root 45.3594 16.5535 -27.4465 -39.926 84.5886 -42.8261
lowerback 5.39923 -0.341175 3.41691
upperback 1.20088 -0.236553 0.229099
thorax -1.80381 -0.123188 -1.66581
lowerneck 3.86718 0.447738 4.10068
upperneck -0.511322 0.800746 -0.0588566
head -0.783758 0.395615 -0.714562
rclavicle 1.12313e-014 3.97569e-015
rhumerus -34.8685 -15.4219 -82.16
rradius 17.2979
rwrist 18.8974
rhand -21.3365 -6.23853
rfingers 7.12502
rthumb 5.04944 -36.1584
lclavicle 1.12313e-014 3.97569e-015
lhumerus -28.6661 11.9975 83.6167
lradius 6.98948
lwrist 8.44132
lhand -26.5485 15.9457
lfingers 7.12502
lthumb 0.016022 45.9255
rfemur -12.8747 5.96795 25.9937
rtibia 28.5992
rfoot -18.47 -14.7598
rtoes 10.0557
lfemur 5.29068 3.42242 -14.1986
ltibia -6.36111e-014
lfoot -4.74852 -15.3651
ltoes -0.41244
1407
root 45.3621 16.5523 -27.4459 -39.5254 84.5542 -42.4227
lowerback 5.4104 -0.342037 3.41428
upperback 1.20816 -0.237465 0.226997
thorax -1.80261 -0.123474 -1.66642
lowerneck 3.85918 0.44164 4.06738
upperneck -0.536306 0.791677 -0.0168784
head -0.790422 0.390297 -0.695803
rclavicle 1.21259e-014 6.75868e-015
rhumerus -34.8553 -15.3887 -82.1784
rradius 17.3108
rwrist 18.8862
rhand -21.3249 -6.24348
rfingers 7.12502
rthumb 5.06061 -36.1631
lclavicle 1.21259e-014 6.75868e-015
lhumerus -28.6503 11.9881 83.6099
lradius 6.99952
lwrist 8.39277
lhand -26.5218 15.9199
lfingers 7.12502
lthumb 0.0417297 45.8997
rfemur -12.8763 5.94631 25.9837
rtibia 28.6195
rfoot -18.468 -14.6803
rtoes 10.0349
lfemur 5.3188 3.47368 -14.2017
ltibia -5.08889e-014
lfoot -4.79915 -15.3532
ltoes -0.469079
1408
root 45.3646 16.551 -27.4455 -39.0931 84.5143 -41.9868
lowerback 5.42375 -0.342279 3.41062
upperback 1.21505 -0.237493 0.225718
thorax -1.80296 -0.123342 -1.66565
lowerneck 3.84805 0.434079 4.03256
upperneck -0.560623 0.780462 0.0259786
head -0.796389 0.383912 -0.676463
rclavicle -1.30204e-014 -2.78299e-015
rhumerus -34.8418 -15.3523 -82.1964
rradius 17.3267
rwrist 18.8729
rhand -21.3116 -6.24936
rfingers 7.12502
rthumb 5.07344 -36.1686
lclavicle -1.30204e-014 -2.78299e-015
lhumerus -28.6378 11.9829 83.6011
lradius 7.01353
lwrist 8.33576
lhand -26.4952 15.8973
lfingers 7.12502
lthumb 0.0674586 45.877
rfemur -12.8788 5.92664 25.9734
rtibia 28.6403
rfoot -18.463 -14.5948
rtoes 10.0148
lfemur 5.3479 3.53117 -14.2042
ltibia -6.99722e-014
lfoot -4.85149 -15.3408
ltoes -0.533521
1409
root 45.3667 16.5498 -27.4453 -38.6207 84.4685 -41.5107
lowerback 5.43785 -0.342311 3.40513
upperback 1.2219 -0.237306 0.224758
thorax -1.80376 -0.123102 -1.66355
lowerneck 3.83608 0.425255 3.99514
upperneck -0.586812 0.767498 0.0718029
head -0.802829 0.376598 -0.655751
rclavicle 3.13086e-015 1.98785e-015
rhumerus -34.8261 -15.3109 -82.2162
rradius 17.3443
rwrist 18.8574
rhand -21.2987 -6.25576
rfingers 7.12502
rthumb 5.08593 -36.1747
lclavicle 3.13086e-015 1.98785e-015
lhumerus -28.6266 11.9832 83.5883
lradius 7.0291
lwrist 8.27057
lhand -26.467 15.8732
lfingers 7.12502
lthumb 0.0947239 45.8529
rfemur -12.8836 5.90957 25.9624
rtibia 28.6619
rfoot -18.4543 -14.5033
rtoes 9.99328
lfemur 5.37707 3.59578 -14.2065
ltibia 3.97569e-014
lfoot -4.90456 -15.3277
ltoes -0.600908
